<svg xmlns="http://www.w3.org/2000/svg" xmlns:xlink="http://www.w3.org/1999/xlink" xmlns:inkscape="http://www.inkscape.org/namespaces/inkscape" version="1.1" width="411.326" height="405.528" viewBox="0 0 411.326 405.528">
<defs>
<clipPath id="clip_0">
<path transform="matrix(1,0,0,-1,0,405.528)" d="M0 405.528H411.326V0H0Z"/>
</clipPath>
<clipPath id="clip_1">
<path transform="matrix(1,0,0,-1,0,405.528)" d="M0 405.528H411.326V0H0Z"/>
</clipPath>
</defs>
<g clip-path="url(#clip_0)">
<path transform="matrix(1,0,0,-1,205.6628,20.524323)" d="M0 0C-100.487 0-182.24-81.753-182.24-182.239-182.24-282.727-100.487-364.479 0-364.479 100.487-364.479 182.24-282.727 182.24-182.239 182.24-81.753 100.487 0 0 0M0-371.325C-104.263-371.325-189.086-286.502-189.086-182.239-189.086-77.978-104.263 6.846 0 6.846 104.263 6.846 189.086-77.978 189.086-182.239 189.086-286.502 104.263-371.325 0-371.325" fill="#b2d8d8"/>
<path transform="matrix(1,0,0,-1,382.1589,202.76361)" d="M0 0C0-97.477-79.02-176.496-176.496-176.496-273.972-176.496-352.991-97.477-352.991 0-352.991 97.476-273.972 176.495-176.496 176.495-79.02 176.495 0 97.476 0 0" fill="#c095e5"/>
<path transform="matrix(1,0,0,-1,138.0798,148.92862)" d="M0 0C-.188-2.99 2.083-5.567 5.073-5.756 8.063-5.944 10.641-3.673 10.829-.683 11.018 2.308 8.746 4.885 5.755 5.073 2.765 5.262 .188 2.99 0 0" fill="#b2d8d8"/>
<path transform="matrix(1,0,0,-1,136.3933,134.09272)" d="M0 0C.933 2.727 2.269 4.651 4.598 5.689 3.753 4.562 2.898 3.422 1.855 2.028 6.388 2.521 9.444 5.536 9.746 9.398 6.135 9.892 2.712 8.562 .805 3.931 .805 4.996 .826 6.062 .801 7.127 .694 11.701-.235 16.002-3.469 19.491-6.038 22.264-9.343 23.61-12.959 24.403-14.32 15.382-10.81 7.704-2.471 4.052-2.357 7.743-3.874 10.832-5.773 13.867-2.685 11.957-1.036 8.029 0 0" fill="#ffffff"/>
<path transform="matrix(1,0,0,-1,203.9646,136.99011)" d="M0 0C6.647-5.008 13.296-10.016 19.944-15.022V-1.211H25.383V-19.119C32.592-24.55 39.802-29.979 47.011-35.41H39.77C26.821-25.9 13.873-16.39 .925-6.88-14.281-16.39-29.486-25.9-44.692-35.41H-47.89C-31.927-23.606-15.964-11.804 0 0" fill="#b2d8d8"/>
<path transform="matrix(1,0,0,-1,154.8991,162.45891)" d="M0 0C4.165 4.11 9.388 5.268 11.366 5.578 15.296 6.196 19.177 5.81 22.872 4.799 23.77 5.463 24.668 6.127 25.566 6.791 20.227 9.246 14.319 10.64 8.198 9.783-3.546 8.142-9.77-.835-15.326 1.967-18.539 3.588-21.417 9.313-18.812 28.366-20.864 26.239-23.473 22.972-25.159 18.466-29.905 5.78-23.628-6.808-18.399-17.295-14.593-24.929-7.371-36.847 5.969-48.299-.484-38.125-2.562-28.931-3.334-23.394-4.439-15.47-5.8-5.722 0 0" fill="#b2d8d8"/>
<path transform="matrix(1,0,0,-1,190.6413,163.37682)" d="M0 0C-2.979 0-5.401-2.423-5.401-5.401-5.401-8.379-2.979-10.802 0-10.802 2.979-10.802 5.401-8.379 5.401-5.401 5.401-2.423 2.979 0 0 0M10.746-22.438C11.57-23.588 12.971-24.505 14.912-25.169L15.021-19.283ZM-8.464-40.396C-8.563-40.869-8.661-41.34-8.757-41.815-9.043-43.24-9.188-44.052-9.284-44.589-9.389-45.173-9.443-45.475-9.558-45.932-9.886-47.247-10.549-48.55-11.867-51.146-12.605-52.599-13.565-54.357-14.574-56.104-15.499-57.704-16.459-59.291-17.428-60.82L-17.463-60.869C-17.706-61.166-18.264-61.973-18.188-63.068-18.183-63.138-18.026-64.808-16.751-65.435-16.432-65.592-16.078-65.671-15.7-65.671-14.742-65.671-13.753-65.146-13.117-64.302L-3.104-47.926C-4.276-46.364-5.422-44.789-6.51-43.24-7.168-42.303-7.821-41.351-8.464-40.396M6.371-67.407C4.666-67.407 2.598-66.026 2.123-63.468 1.557-61.322 1.009-59.168 .496-57.075 .323-56.368 .106-55.653-.103-54.962-.366-54.09-.636-53.198-.834-52.286L-.849-52.216C-.991-51.553-1.208-50.551-1.907-49.447-2.068-49.191-2.25-48.942-2.446-48.705L-12.323-64.859C-13.145-65.96-14.438-66.638-15.707-66.638-16.233-66.638-16.729-66.525-17.179-66.304-18.991-65.413-19.148-63.227-19.154-63.134-19.254-61.707-18.538-60.657-18.226-60.271-17.273-58.765-16.323-57.194-15.414-55.618-14.41-53.881-13.458-52.139-12.734-50.713-11.447-48.18-10.801-46.909-10.497-45.696-10.39-45.266-10.337-44.969-10.24-44.428-10.134-43.835-9.988-43.022-9.706-41.624-9.545-40.824-9.382-40.041-9.208-39.233-9.935-37.611-10.386-35.925-10.548-34.222-10.68-32.842-10.521-31.523-10.206-28.897-10.077-27.817-9.938-26.928-9.787-26.203-9.999-26.546-10.197-26.885-10.381-27.217-11.006-28.345-11.542-29.311-11.963-30.652-12.334-31.836-12.501-32.948-12.571-33.423-12.646-33.914-12.679-34.253-12.705-34.525-12.752-35.017-12.781-35.322-12.974-35.784-13.271-36.497-14.131-38.155-15.666-38.157-16.893-38.157-18.047-37.082-18.412-35.6L-18.425-35.507C-18.462-33.38-18.268-31.277-17.848-29.244-17.203-26.13-16.173-23.862-15.344-22.04-14.536-20.266-13.587-18.532-12.52-16.881-11.246-14.91-10.545-13.824-9.272-12.887-7.843-11.834-6.132-11.229-4.186-11.088L-4.043-11.077-3.974-12.044-4.116-12.055C-5.877-12.182-7.418-12.725-8.697-13.667-9.779-14.464-10.401-15.39-11.706-17.407-12.746-19.016-13.672-20.707-14.458-22.435-15.311-24.306-16.276-26.427-16.897-29.44-17.301-31.391-17.489-33.408-17.458-35.437-17.198-36.421-16.427-37.188-15.669-37.188-14.686-37.187-14.042-35.827-13.867-35.411-13.731-35.082-13.714-34.9-13.672-34.46-13.645-34.171-13.61-33.812-13.53-33.279-13.456-32.783-13.282-31.621-12.888-30.362-12.436-28.922-11.849-27.865-11.229-26.747-10.853-26.07-10.444-25.399-10.014-24.752L-9.935-24.632-9.462-24.947C-9.316-24.507-9.176-24.205-9.055-23.965-8.601-23.065-8.005-22.235-7.284-21.497L-7.185-21.395-6.491-22.071-6.591-22.174C-7.241-22.841-7.779-23.59-8.189-24.401-8.522-25.061-8.879-25.959-9.243-29.002-9.551-31.564-9.705-32.852-9.583-34.13-9.427-35.769-8.984-37.393-8.269-38.957-7.443-40.192-6.581-41.452-5.717-42.683-4.559-44.332-3.354-45.987-2.137-47.604-1.746-48.004-1.389-48.454-1.088-48.929-.298-50.179-.05-51.326 .099-52.012L.113-52.08C.302-52.948 .565-53.823 .822-54.669 1.043-55.401 1.26-56.121 1.437-56.845 1.942-58.907 2.49-61.06 3.065-63.243 3.45-65.332 5.046-66.439 6.356-66.439 6.471-66.439 6.583-66.431 6.693-66.414 7.968-66.219 8.688-64.979 8.909-64.531L6.537-54.921C6.3-52.426 5.766-50.011 4.946-47.722 4.165-45.538 3.693-44.221 2.581-42.644 2.369-42.346 2.146-42.052 1.908-41.74 1.186-40.792 .367-39.718-.454-38.027-.696-37.53-.919-37.021-1.115-36.511L-1.167-36.377-.264-36.028-.211-36.161C-.023-36.648 .188-37.133 .417-37.604 1.199-39.212 1.985-40.243 2.68-41.153 2.922-41.472 3.151-41.773 3.372-42.085 4.561-43.77 5.077-45.212 5.858-47.395 6.702-49.752 7.254-52.238 7.497-54.784L8.423-58.525C9.623-56.556 10.758-54.564 11.798-52.601 12.783-50.743 13.73-48.831 14.614-46.915 14.813-45.965 14.98-44.959 15.101-43.956 15.233-42.843 15.39-40.861 15.211-36.527 15.137-34.708 15.016-32.852 14.854-31.007 13.563-30.942 9.783-30.572 7.253-28.463 5.842-27.287 4.862-25.741 4.821-25.676 4.779-25.608 4.738-25.541 4.697-25.473L3.539-37.209 2.574-37.114 4.029-22.373 4.305-22.332 4.826-23.583C5.054-24.129 5.328-24.66 5.643-25.161 5.681-25.222 6.605-26.662 7.873-27.719 10.117-29.589 13.592-29.959 14.821-30.032L14.893-26.187C12.225-25.331 10.418-24.025 9.521-22.306 9.331-21.94 9.231-21.654 9.08-21.222 8.907-20.726 8.672-20.05 8.141-18.781 7.439-17.11 7.088-16.272 6.675-15.689 5.77-14.413 4.697-13.653 3.456-12.773 2.867-12.355 2.224-11.953 1.543-11.574 1.023-11.705 .504-11.771 0-11.771-3.513-11.771-6.37-8.913-6.37-5.401-6.37-1.889-3.513 .97 0 .97 3.512 .97 6.37-1.889 6.37-5.401 6.37-7.868 4.953-10.096 2.737-11.152 3.226-11.446 3.637-11.713 4.015-11.981 5.276-12.876 6.466-13.719 7.466-15.129 7.939-15.798 8.305-16.669 9.032-18.403 9.569-19.683 9.822-20.408 9.99-20.889 10.094-21.183 10.167-21.391 10.257-21.595L16.027-17.337 15.782-30.528C15.965-32.519 16.1-34.528 16.18-36.487 16.361-40.889 16.199-42.924 16.062-44.071 15.938-45.115 15.764-46.163 15.543-47.187L15.515-47.273C14.616-49.226 13.655-51.166 12.654-53.055 11.443-55.339 10.131-57.625 8.75-59.85L9.93-64.62 9.868-64.768C9.829-64.861 8.881-67.06 6.84-67.372 6.687-67.396 6.529-67.407 6.371-67.407" fill="#ffffff"/>
<path transform="matrix(1,0,0,-1,177.6394,227.76552)" d="M0 0C-.956-1.27-2.593-1.774-3.813-1.174-5.188-.498-5.328 1.293-5.329 1.311-5.408 2.457-4.826 3.301-4.571 3.61L-4.547 3.645C-3.571 5.186-2.612 6.771-1.696 8.357-.684 10.111 .275 11.868 1.004 13.302 2.319 15.891 2.98 17.19 3.306 18.492 3.421 18.952 3.477 19.263 3.576 19.825 3.673 20.362 3.817 21.175 4.105 22.602 4.224 23.187 4.344 23.769 4.468 24.353 5.172 23.307 5.888 22.26 6.609 21.231 7.732 19.633 8.896 18.033 10.069 16.471ZM28.054 39.022C25.922 39.721 24.409 40.714 23.55 41.982L28.173 45.394ZM13.002 53.443C9.944 53.443 7.457 55.931 7.457 58.987 7.457 62.045 9.944 64.532 13.002 64.532 16.06 64.532 18.547 62.045 18.547 58.987 18.547 55.931 16.06 53.443 13.002 53.443M25.529 11.401C26.529 13.286 27.488 15.224 28.382 17.162L28.405 17.232C28.623 18.249 28.798 19.292 28.922 20.335 29.059 21.478 29.22 23.504 29.038 27.896 28.957 29.864 28.823 31.872 28.641 33.863L28.881 46.765 23.202 42.574C23.073 42.839 22.987 43.078 22.86 43.442 22.693 43.921 22.44 44.645 21.902 45.93 21.179 47.655 20.815 48.521 20.351 49.177 19.364 50.568 18.184 51.404 16.934 52.291 16.448 52.634 15.942 52.951 15.43 53.254 17.66 54.202 19.229 56.415 19.229 58.987 19.229 62.421 16.436 65.215 13.002 65.215 9.568 65.215 6.775 62.421 6.775 58.987 6.775 55.554 9.568 52.761 13.002 52.761 13.542 52.761 14.064 52.837 14.564 52.967 15.241 52.593 15.906 52.182 16.54 51.733 17.792 50.846 18.874 50.078 19.794 48.781 20.215 48.188 20.568 47.345 21.274 45.663 21.804 44.4 22.042 43.717 22.217 43.218 22.366 42.789 22.465 42.507 22.651 42.149 23.542 40.439 25.357 39.148 28.041 38.307L27.964 34.205C26.84 34.26 23.152 34.585 20.783 36.56 19.471 37.654 18.532 39.137 18.522 39.151 18.205 39.659 17.927 40.197 17.695 40.751L17.174 42.001 15.733 27.403 16.412 27.336 17.601 39.376C17.71 39.177 17.824 38.98 17.944 38.789 17.984 38.726 18.947 37.202 20.347 36.036 22.923 33.889 26.802 33.567 27.986 33.52 28.155 31.632 28.279 29.732 28.356 27.867 28.535 23.525 28.378 21.535 28.244 20.416 28.124 19.407 27.956 18.396 27.746 17.413 26.862 15.498 25.914 13.583 24.927 11.721 23.812 9.618 22.615 7.529 21.368 5.495L20.355 9.591C20.114 12.125 19.565 14.6 18.726 16.945 17.947 19.118 17.434 20.553 16.257 22.221 16.038 22.531 15.81 22.831 15.567 23.149 14.868 24.066 14.076 25.106 13.29 26.723 13.058 27.199 12.846 27.688 12.657 28.176L12.021 27.929C12.216 27.425 12.437 26.918 12.676 26.425 13.492 24.747 14.306 23.678 15.024 22.735 15.263 22.423 15.487 22.127 15.699 21.827 16.823 20.235 17.297 18.911 18.083 16.716 18.906 14.415 19.443 11.988 19.679 9.502L22.063-.159C21.877-.55 21.117-1.952 19.718-2.167 18.22-2.396 16.343-1.145 15.935 1.083L15.929 1.108C15.355 3.285 14.808 5.438 14.3 7.51 14.121 8.241 13.9 8.97 13.688 9.675 13.431 10.524 13.165 11.403 12.976 12.277L12.96 12.347C12.814 13.023 12.569 14.156 11.793 15.383 11.494 15.854 11.143 16.296 10.75 16.699 9.535 18.312 8.33 19.969 7.168 21.623 6.301 22.857 5.438 24.118 4.603 25.372 3.881 26.95 3.435 28.59 3.276 30.245 3.152 31.538 3.308 32.828 3.616 35.404 3.984 38.47 4.346 39.382 4.685 40.052 5.101 40.875 5.646 41.637 6.309 42.314L5.819 42.791C5.109 42.063 4.522 41.245 4.075 40.359 3.927 40.064 3.773 39.726 3.619 39.217L3.107 39.558C2.682 38.917 2.274 38.249 1.898 37.572 1.281 36.459 .698 35.408 .251 33.983-.139 32.742-.312 31.583-.387 31.088-.466 30.559-.5 30.202-.527 29.915-.569 29.472-.589 29.27-.733 28.923-.916 28.485-1.596 27.059-2.665 27.057H-2.667C-3.493 27.057-4.318 27.868-4.599 28.95-4.631 30.989-4.442 33.017-4.037 34.978-3.411 38.006-2.441 40.135-1.587 42.014-.798 43.746 .132 45.444 1.176 47.06 2.489 49.092 3.116 50.024 4.22 50.837 5.521 51.796 7.088 52.348 8.875 52.478L8.826 53.158C6.907 53.019 5.222 52.423 3.814 51.387 2.564 50.466 1.868 49.387 .603 47.43-.46 45.786-1.405 44.06-2.208 42.297-3.035 40.479-4.063 38.219-4.705 35.116-5.123 33.093-5.316 31.001-5.28 28.899L-5.271 28.823C-4.921 27.404-3.826 26.375-2.667 26.375H-2.664C-1.215 26.377-.391 27.974-.104 28.66 .081 29.103 .107 29.384 .152 29.851 .179 30.129 .212 30.476 .288 30.987 .36 31.466 .528 32.589 .902 33.779 1.328 35.138 1.869 36.112 2.495 37.241 2.825 37.836 3.183 38.42 3.553 38.987 3.349 38.249 3.143 37.182 2.938 35.479 2.624 32.86 2.467 31.547 2.597 30.181 2.759 28.478 3.212 26.793 3.943 25.171 3.767 24.349 3.601 23.551 3.437 22.736 3.147 21.302 3.001 20.485 2.904 19.945 2.807 19.397 2.753 19.095 2.644 18.657 2.337 17.432 1.688 16.154 .396 13.611-.328 12.188-1.28 10.442-2.287 8.698-3.195 7.127-4.146 5.555-5.112 4.026-5.425 3.642-6.104 2.634-6.01 1.264-6.004 1.174-5.838-.939-4.114-1.787-2.599-2.531-.592-1.934 .557-.396L10.537 15.927C10.787 15.641 11.015 15.336 11.216 15.018 11.928 13.894 12.147 12.876 12.293 12.202L12.309 12.133C12.504 11.231 12.773 10.34 13.034 9.478 13.245 8.781 13.463 8.062 13.637 7.348 14.145 5.276 14.692 3.123 15.266 .947 15.712-1.451 17.655-2.875 19.373-2.875 19.524-2.875 19.674-2.864 19.82-2.842 21.79-2.54 22.7-.413 22.737-.323L22.781-.219 21.599 4.563C22.98 6.789 24.304 9.088 25.529 11.401" fill="#ffffff"/>
<path transform="matrix(1,0,0,-1,213.4567,159.19911)" d="M0 0C-3.063 0-5.554-2.491-5.554-5.553-5.554-8.615-3.063-11.106 0-11.106 3.062-11.106 5.553-8.615 5.553-5.553 5.553-2.491 3.062 0 0 0M0-12.075C-3.597-12.075-6.522-9.149-6.522-5.553-6.522-1.957-3.597 .969 0 .969 3.597 .969 6.521-1.957 6.521-5.553 6.521-9.149 3.597-12.075 0-12.075" fill="#ffffff"/>
<path transform="matrix(1,0,0,-1,213.4567,159.05562)" d="M0 0C3.141 0 5.696-2.556 5.696-5.696 5.696-8.838 3.141-11.393 0-11.393-3.142-11.393-5.696-8.838-5.696-5.696-5.696-2.556-3.142 0 0 0M0-12.075C3.518-12.075 6.378-9.214 6.378-5.696 6.378-2.18 3.518 .682 0 .682-3.518 .682-6.379-2.18-6.379-5.696-6.379-9.214-3.518-12.075 0-12.075" fill="#ffffff"/>
<path transform="matrix(1,0,0,-1,225.3444,230.49112)" d="M0 0C-.547 0-1.103 .124-1.608 .357-2.597 .813-3.364 1.668-3.715 2.7-4.539 6.481-5.398 10.208-6.285 13.83-6.829 16.052-7.248 17.658-8.083 19.674-8.724 21.224-9.495 22.736-10.38 24.175-10.548 22.622-10.906 21.114-11.447 19.687-11.839 18.653-12.146 18.138-12.89 16.894-13.269 16.262-13.785 15.396-14.493 14.159-16.427 10.782-17.395 9.092-17.999 7.772-18.244 7.237-18.451 6.756-18.635 6.33-19.285 4.822-19.715 3.825-20.813 2.641-21.649 1.739-22.649 .979-23.787 .381L-23.913 .313-24.365 1.171-24.238 1.238C-23.198 1.786-22.285 2.479-21.524 3.3-20.539 4.362-20.135 5.298-19.524 6.714-19.337 7.148-19.129 7.634-18.881 8.176-18.26 9.53-17.291 11.223-15.361 14.595-14.636 15.86-14.123 16.72-13.746 17.352L-13.715 17.402C-12.986 18.623-12.713 19.08-12.353 20.031-11.68 21.807-11.308 23.705-11.247 25.675L-11.201 27.168-11.016 26.896-10.191 31.628-9.237 31.462-10.234 25.735C-9.029 23.934-8.004 22.02-7.187 20.045-6.325 17.963-5.898 16.323-5.344 14.061-4.462 10.454-3.602 6.726-2.787 2.979-2.519 2.209-1.955 1.585-1.203 1.237-.823 1.062-.407 .969-.001 .969 .33 .969 .648 1.028 .943 1.146 2.209 1.648 2.915 3.095 2.584 4.509 2.006 7.408 1.449 10.283 .931 13.061L.543 15.15C.143 17.318-.007 18.129-.37 19.57-1.037 22.204-1.75 24.286-2.577 26.696-3.235 28.618-3.941 30.544-4.674 32.421L-4.7 32.521C-4.885 34.029-5.001 35.556-5.048 37.075-5.106 38.938-5.045 40.383-4.991 41.657-4.924 43.252-4.809 44.868-4.648 46.465L-4.415 48.784-4.132 48.797-3.69 46.508C-3.39 44.951-2.904 43.438-2.247 42.013-1.5 40.389-.706 39.279 .493 37.6 1.676 35.944 2.964 34.317 4.322 32.765 4.75 32.567 5.217 32.463 5.674 32.463 6.014 32.463 6.342 32.52 6.649 32.63 7.233 32.84 7.69 33.232 7.902 33.706 8.221 34.415 8.027 35.374 7.409 36.147 6.294 37.282 5.283 38.526 4.415 39.836 3.027 41.93 2.26 43.789 1.7 45.146 1.335 46.033 .988 47.009 .299 48.953L.268 49.041C-.014 49.836-.222 50.438-.384 50.906-.817 52.165-.908 52.427-1.222 52.926-1.774 53.808-2.765 55.036-4.339 55.884-5.277 56.391-6.139 56.548-7.998 56.856-9.632 57.128-11.313 57.265-12.994 57.265-13.937 57.265-14.893 57.222-15.837 57.136-17.435 56.992-18.18 56.912-19.114 56.543-20.069 56.164-20.65 55.714-21.923 54.729L-22.58 54.221C-23.796 53.286-25.062 52.345-26.347 51.425L-26.463 51.342-27.027 52.129-26.91 52.212C-25.629 53.132-24.37 54.065-23.17 54.989L-22.519 55.492C-21.17 56.537-20.555 57.015-19.471 57.443-18.367 57.881-17.5 57.959-15.924 58.102-14.951 58.189-13.966 58.233-12.995 58.233-11.261 58.233-9.525 58.092-7.84 57.813-6.009 57.509-5 57.342-3.879 56.737-2.119 55.789-1.016 54.421-.4 53.44-.027 52.847 .08 52.535 .533 51.223 .7 50.736 .905 50.144 1.182 49.364 1.888 47.373 2.236 46.389 2.595 45.521 3.142 44.193 3.888 42.387 5.223 40.371 6.061 39.108 7.035 37.907 8.121 36.805 9.007 35.711 9.255 34.354 8.787 33.31 8.468 32.597 7.808 32.017 6.978 31.719 6.564 31.57 6.126 31.495 5.674 31.495 5.037 31.495 4.392 31.647 3.808 31.936L3.747 31.966 3.658 32.051C2.251 33.656 .921 35.333-.295 37.036-1.53 38.765-2.343 39.903-3.128 41.607-3.423 42.247-3.687 42.91-3.916 43.585-3.959 42.93-3.995 42.271-4.022 41.619-4.076 40.356-4.137 38.932-4.079 37.105-4.034 35.636-3.923 34.153-3.747 32.698-3.024 30.859-2.319 28.934-1.66 27.011-.826 24.578-.105 22.479 .568 19.808 .937 18.347 1.09 17.524 1.496 15.327L1.884 13.238C2.412 10.41 2.967 7.542 3.531 4.714 3.968 2.847 3.009 .924 1.302 .245 .892 .082 .454 0 0 0" fill="#ffffff"/>
<path transform="matrix(1,0,0,-1,233.3864,193.81241)" d="M0 0-.022 .025C-1.114 1.135-2.096 2.342-2.938 3.613-4.284 5.644-5.033 7.46-5.58 8.787-5.941 9.663-6.294 10.657-6.996 12.638-7.276 13.43-7.483 14.029-7.645 14.497-8.094 15.798-8.2 16.107-8.563 16.686-9.17 17.651-10.257 18.999-11.989 19.933-13.089 20.525-14.089 20.691-15.905 20.992-18.533 21.429-21.241 21.525-23.953 21.28-25.516 21.139-26.376 21.061-27.46 20.632-28.524 20.21-29.135 19.737-30.473 18.701-30.672 18.546-30.889 18.379-31.125 18.196-32.327 17.272-33.586 16.337-34.869 15.417L-34.472 14.862C-33.183 15.787-31.917 16.727-30.709 17.655-30.472 17.838-30.255 18.006-30.055 18.161-28.77 19.157-28.184 19.611-27.209 19.997-26.257 20.374-25.504 20.455-23.892 20.601-21.238 20.84-18.588 20.746-16.017 20.319-14.142 20.008-13.271 19.849-12.313 19.332-10.712 18.469-9.704 17.22-9.142 16.323-8.819 15.811-8.729 15.546-8.289 14.274-8.128 13.806-7.92 13.204-7.639 12.41-6.933 10.419-6.579 9.419-6.211 8.526-5.653 7.174-4.89 5.321-3.507 3.236-2.644 1.934-1.639 .696-.521-.441 .131-1.257 .332-2.272-.009-3.031-.236-3.54-.724-3.96-1.344-4.184-2.119-4.462-3.013-4.406-3.809-4.031-5.179-2.465-6.477-.827-7.665 .837-8.87 2.524-9.666 3.64-10.419 5.274-11.082 6.712-11.57 8.235-11.873 9.802L-12.314 12.091-12.547 9.771C-12.707 8.179-12.822 6.565-12.89 4.975-12.943 3.702-13.004 2.26-12.947 .4-12.9-1.11-12.784-2.633-12.604-4.122L-12.583-4.205C-11.851-6.08-11.145-8.008-10.483-9.936-9.655-12.351-8.94-14.437-8.273-17.073-7.911-18.508-7.761-19.323-7.358-21.502-7.25-22.087-7.124-22.771-6.971-23.593-6.448-26.387-5.893-29.258-5.318-32.137-4.972-33.62-5.715-35.138-7.045-35.666-7.747-35.945-8.571-35.911-9.305-35.571-10.094-35.207-10.684-34.554-10.969-33.73-11.781-29.993-12.641-26.267-13.525-22.652-14.078-20.395-14.504-18.76-15.361-16.688-16.187-14.693-17.221-12.774-18.427-10.976L-17.444-5.334-18.117-5.217-18.977-10.157-19.113-9.957-19.146-11.009C-19.206-12.993-19.582-14.907-20.261-16.698-20.627-17.664-20.903-18.126-21.641-19.361-22.021-19.996-22.54-20.865-23.252-22.109-25.195-25.504-26.172-27.208-26.792-28.562-27.04-29.105-27.25-29.592-27.435-30.021-28.052-31.451-28.459-32.396-29.461-33.477-30.233-34.309-31.159-35.013-32.213-35.567L-31.896-36.172C-30.772-35.58-29.785-34.829-28.961-33.94-27.879-32.774-27.453-31.786-26.809-30.292-26.625-29.865-26.417-29.383-26.171-28.847-25.563-27.521-24.594-25.825-22.659-22.448-21.95-21.21-21.433-20.344-21.056-19.711-20.316-18.475-20.01-17.962-19.623-16.94-19.036-15.394-18.668-13.76-18.523-12.069-17.541-13.621-16.692-15.259-15.992-16.95-15.153-18.976-14.733-20.587-14.188-22.814-13.304-26.429-12.443-30.157-11.632-33.895L-11.621-33.932C-11.283-34.928-10.543-35.751-9.591-36.191-9.096-36.42-8.564-36.535-8.042-36.535-7.612-36.535-7.188-36.457-6.793-36.301-5.151-35.647-4.231-33.791-4.651-31.993-5.223-29.127-5.777-26.259-6.3-23.467-6.453-22.646-6.579-21.963-6.687-21.378-7.093-19.184-7.244-18.362-7.612-16.906-8.285-14.241-9.005-12.144-9.838-9.714-10.497-7.791-11.201-5.868-11.931-3.997-12.106-2.541-12.219-1.055-12.265 .422-12.321 2.256-12.262 3.686-12.208 4.946-12.17 5.846-12.116 6.753-12.048 7.659-11.774 6.744-11.437 5.852-11.039 4.988-10.259 3.295-9.448 2.159-8.221 .44-7.006-1.261-5.679-2.935-4.275-4.533L-4.231-4.585-4.17-4.614C-3.195-5.097-2.081-5.174-1.113-4.825-.319-4.54 .311-3.988 .614-3.311 1.061-2.315 .819-1.017 0 0" fill="#ffffff"/>
</g>
<text fill="#ffffff" xml:space="preserve" transform="matrix(1.0024052 0 -0 .9976006 0 405.528)" font-size="39.171388" font-family="TrajanPro" font-weight="bold"><tspan y="-141.96172" x="68.474018 94.13126 116.5373 141.29363 168.90946 191.47217 203.22359 234.44319 256.65339 268.4048 284.30839 316.70314">Place of Joy</tspan></text>
<text fill="#ffffff" xml:space="preserve" transform="matrix(1.002405 0 -0 .99760076 0 405.528)" font-size="17.44245" font-family="TrajanPro" font-weight="bold"><tspan y="-114.90849" x="110.65088 127.43052 141.76822 157.8676 167.91446 173.14719 187.62442 198.64806 210.61357 220.66042 225.89316 238.10286 251.7603 261.4583 275.953 288.5988">Home Care Agency</tspan></text>
<g clip-path="url(#clip_1)">
<path transform="matrix(1,0,0,-1,0,405.528)" d="M109.132 118.009H70.941V119.282009H109.132Z" fill="#ffffff"/>
<path transform="matrix(1,0,0,-1,0,405.528)" d="M342.687 118.009H304.496V119.282009H342.687Z" fill="#ffffff"/>
</g>
</svg>
