<svg width="93" height="94" viewBox="0 0 93 94" fill="none" xmlns="http://www.w3.org/2000/svg">
<path d="M65.4738 17.246H28.3867C26.3327 17.246 24.6243 17.246 23.223 17.3611C21.764 17.4763 20.3973 17.7374 19.1035 18.3977C17.1164 19.41 15.501 21.0255 14.4887 23.0125C14.1432 23.6921 14.0049 24.5328 13.9282 25.0319C13.8243 25.7712 13.7475 26.5139 13.6978 27.2587C13.5749 28.9096 13.4943 30.9597 13.4406 33.056C13.3369 37.2484 13.3369 41.771 13.3369 43.921V43.9287C13.3369 44.6924 13.6403 45.4247 14.1803 45.9647C14.7203 46.5047 15.4527 46.8081 16.2163 46.8081C16.98 46.8081 17.7124 46.5047 18.2524 45.9647C18.7924 45.4247 19.0958 44.6924 19.0958 43.9287C19.0958 42.8537 19.0958 41.2105 19.1073 39.3216H74.7647V57.7499C74.7647 59.946 74.7647 61.4241 74.6688 62.5567C74.5805 63.6624 74.4192 64.1883 74.2426 64.5339C73.7822 65.4383 73.047 66.1736 72.1425 66.6339C71.797 66.8105 71.271 66.9718 70.1653 67.0601C69.0328 67.1522 67.5546 67.1561 65.3586 67.1561H46.9303C46.1666 67.1561 45.4342 67.4594 44.8942 67.9994C44.3542 68.5394 44.0508 69.2718 44.0508 70.0355C44.0508 70.7992 44.3542 71.5316 44.8942 72.0716C45.4342 72.6116 46.1666 72.9149 46.9303 72.9149H65.4738C67.5278 72.9149 69.2362 72.9149 70.6376 72.7998C72.0965 72.6846 73.4632 72.4235 74.7571 71.7632C76.7435 70.7519 78.3589 69.1378 79.3718 67.1522C80.0322 65.8546 80.2932 64.4878 80.4084 63.0289C80.5236 61.6276 80.5236 59.9191 80.5236 57.869V32.2958C80.5236 30.2418 80.5236 28.5333 80.4084 27.132C80.2932 25.6731 80.0322 24.3063 79.3718 23.0125C78.3615 21.0267 76.7489 19.4113 74.7647 18.3977C73.4671 17.7374 72.1003 17.4763 70.6414 17.3611C69.2401 17.246 67.5278 17.246 65.4738 17.246ZM74.7647 31.6431H19.2455C19.2916 30.1688 19.3607 28.8059 19.4375 27.6849C19.4989 26.9221 19.5616 26.3207 19.6256 25.8804C19.6589 25.6731 19.6819 25.54 19.6947 25.4811C20.1588 24.6423 20.8635 23.9616 21.718 23.527C22.0635 23.3504 22.5895 23.1891 23.6913 23.1008C24.8278 23.0087 26.302 23.0048 28.5019 23.0048H65.3586C67.5546 23.0048 69.0328 23.0048 70.1653 23.1008C71.271 23.1891 71.797 23.3504 72.1425 23.527C73.0486 23.9877 73.7819 24.721 74.2426 25.627C74.4192 25.9726 74.5805 26.4985 74.6688 27.6004C74.7494 28.5986 74.7609 29.8617 74.7647 31.6431Z" fill="black"/>
<path d="M36.618 61.8847L33.8537 64.5722C35.5891 67.8471 35.0439 71.9627 32.2067 74.7116L27.7992 78.9886C26.0777 80.6337 23.7881 81.5517 21.4069 81.5517C19.0257 81.5517 16.7361 80.6337 15.0146 78.9886C14.1818 78.1928 13.519 77.2365 13.0662 76.1774C12.6134 75.1183 12.3799 73.9784 12.3799 72.8266C12.3799 71.6747 12.6134 70.5349 13.0662 69.4758C13.519 68.4167 14.1818 67.4604 15.0146 66.6646L17.7788 63.9848C16.912 62.3455 16.6035 60.4682 16.9 58.6377C17.1965 56.8072 18.082 55.1233 19.422 53.8415L23.8295 49.5646C25.551 47.9195 27.8406 47.0015 30.2218 47.0015C32.603 47.0015 34.8926 47.9195 36.6141 49.5646C37.4469 50.3604 38.1097 51.3167 38.5625 52.3758C39.0154 53.4349 39.2488 54.5748 39.2488 55.7266C39.2488 56.8784 39.0154 58.0183 38.5625 59.0774C38.1097 60.1365 37.4469 61.0928 36.6141 61.8886M34.1148 59.5466C34.6295 59.0532 35.0391 58.4608 35.3188 57.8049C35.5986 57.1491 35.7429 56.4435 35.7429 55.7304C35.7429 55.0174 35.5986 54.3118 35.3188 53.656C35.0391 53.0001 34.6295 52.4077 34.1148 51.9142C33.0674 50.9088 31.6718 50.3474 30.2199 50.3474C28.768 50.3474 27.3724 50.9088 26.325 51.9142L21.9137 56.1912C21.216 56.8621 20.7154 57.7114 20.4663 58.6468C20.2172 59.5822 20.2292 60.5679 20.5009 61.497C22.1562 60.3461 24.141 59.7649 26.1556 59.8411C28.1703 59.9173 30.1055 60.6467 31.6692 61.9193L34.1148 59.5466ZM29.1699 64.2766C28.1985 63.5583 27.0224 63.1707 25.8144 63.1707C24.6063 63.1707 23.4302 63.5583 22.4589 64.2766C23.4302 64.9948 24.6063 65.3825 25.8144 65.3825C27.0224 65.3825 28.1985 64.9948 29.1699 64.2766ZM17.5101 69.0104C16.9954 69.5038 16.5858 70.0963 16.306 70.7521C16.0262 71.4079 15.882 72.1136 15.882 72.8266C15.882 73.5396 16.0262 74.2452 16.306 74.9011C16.5858 75.5569 16.9954 76.1493 17.5101 76.6428C18.5575 77.6482 19.9531 78.2096 21.405 78.2096C22.8569 78.2096 24.2525 77.6482 25.2999 76.6428L29.7112 72.3659C31.1893 70.9338 31.6615 68.8875 31.124 67.06C29.4687 68.2109 27.4839 68.7921 25.4693 68.716C23.4546 68.6398 21.5194 67.9103 19.9557 66.6377L17.5101 69.0104ZM54.6086 50.8393C53.5904 50.8393 52.6139 51.2437 51.8939 51.9637C51.1739 52.6837 50.7694 53.6603 50.7694 54.6785C50.7694 55.6967 51.1739 56.6732 51.8939 57.3932C52.6139 58.1132 53.5904 58.5177 54.6086 58.5177H66.1264C67.1446 58.5177 68.1211 58.1132 68.8411 57.3932C69.5611 56.6732 69.9656 55.6967 69.9656 54.6785C69.9656 53.6603 69.5611 52.6837 68.8411 51.9637C68.1211 51.2437 67.1446 50.8393 66.1264 50.8393H54.6086Z" fill="black"/>
</svg>
