<svg width="149" height="60" viewBox="0 0 149 60" fill="none" xmlns="http://www.w3.org/2000/svg">
<g clip-path="url(#clip0_316_1340)">
<path d="M105.394 16.8325C109.464 16.8325 112.609 17.9426 115.014 20.1627C117.419 22.3825 118.529 25.3426 118.529 29.0426V46.8024H113.349V42.7328H113.164C110.944 46.063 107.799 47.7279 104.099 47.7279C100.954 47.7279 98.1789 46.8027 95.9591 44.9529C93.924 43.1029 92.6289 40.513 92.6289 37.738C92.6289 34.7778 93.739 32.3728 95.9591 30.5228C98.1789 28.6728 101.324 27.9328 105.024 27.9328C108.354 27.9328 110.944 28.488 112.979 29.7828V28.488C112.979 26.7612 112.334 25.0347 111.045 23.9096L110.759 23.6779C109.279 22.3828 107.429 21.6429 105.394 21.6429C102.249 21.6429 99.844 22.9379 98.1789 25.5279L93.3691 22.5673C96.3289 18.6823 100.214 16.8325 105.394 16.8325ZM79.3091 4.25238C82.6285 4.25238 85.7832 5.40755 88.3055 7.56173L88.7441 7.95209C91.3341 10.1722 92.6289 13.5024 92.6289 17.0173C92.6289 20.5323 91.3341 23.6774 88.7441 26.0823C86.1542 28.4871 83.0091 29.7823 79.3091 29.7823L70.4292 29.5972V46.8024H64.8789V4.25238H79.3091ZM106.134 32.3725C103.914 32.3725 102.064 32.9275 100.584 34.0374C99.104 34.9623 98.364 36.2572 98.364 37.9222C98.364 39.4024 99.1042 40.6972 100.214 41.4374C101.509 42.3624 102.989 42.9173 104.469 42.9173C106.541 42.9173 108.613 42.1114 110.234 40.6503L110.574 40.3274C112.424 38.6624 113.349 36.6274 113.349 34.4073C111.684 33.1124 109.279 32.3722 106.134 32.3722M79.6795 9.43197H70.4295V24.2328H79.6795C81.7142 24.2328 83.7493 23.4929 85.0444 22.013C88.0042 19.238 88.0042 14.613 85.2295 11.8377L85.0444 11.6527C83.5642 10.1728 81.7142 9.24778 79.6792 9.43284M148.499 17.7575L130.184 59.7526H124.634L131.479 45.1377L119.454 17.9426H125.374L134.069 38.8475H134.254L142.764 17.9426H148.499V17.7575Z" fill="#5F6368"/>
<path d="M48.4145 25.8975C48.4145 24.2326 48.2294 22.5677 48.0443 20.9027H24.9199V30.3378H38.0547C37.4998 33.2975 35.8349 36.0725 33.2449 37.7378V43.8426H41.1998C45.8248 39.5878 48.4147 33.2975 48.4147 25.8978" fill="#4285F4"/>
<path d="M24.9197 49.7628C31.5795 49.7628 37.1295 47.5426 41.1996 43.8426L33.2447 37.7378C31.0246 39.2177 28.2496 40.1426 24.9197 40.1426C18.6295 40.1426 13.0795 35.8878 11.2295 29.9677H3.08984V36.2576C7.34473 44.5826 15.6697 49.7628 24.9197 49.7628Z" fill="#34A853"/>
<path d="M11.2292 29.9675C10.1194 27.0075 10.1194 23.6776 11.2292 20.5325V14.2426H3.08955C-0.425682 21.0877 -0.425682 29.2276 3.08955 36.2575L11.2292 29.9675Z" fill="#FBBC04"/>
<path d="M24.9195 10.5426C28.4345 10.5426 31.7643 11.8377 34.3546 14.2426L41.3845 7.2127C36.9442 3.14258 31.0244 0.737698 25.1043 0.922466C15.8543 0.922466 7.34453 6.10264 3.27441 14.4276L11.4144 20.7176C13.0793 14.7975 18.6293 10.5426 24.9195 10.5426Z" fill="#EA4335"/>
</g>
<defs>
<clipPath id="clip0_316_1340">
<rect width="148.046" height="58.9872" fill="white" transform="translate(0.453125 0.912659)"/>
</clipPath>
</defs>
</svg>
