<svg width="73" height="86" viewBox="0 0 73 86" fill="none" xmlns="http://www.w3.org/2000/svg">
<g clip-path="url(#clip0_316_1346)">
<path d="M61.4173 7.41583C57.5091 2.96116 50.4442 1.05133 41.4061 1.05133H15.1751C14.2808 1.05119 13.4158 1.37016 12.7357 1.95086C12.0556 2.53156 11.6051 3.33588 11.4651 4.21913L0.542991 73.4898C0.325896 74.8558 1.38361 76.0927 2.76808 76.0927H18.9622L23.0292 50.2962L22.903 51.104C23.1928 49.2805 24.7523 47.9356 26.599 47.9356H34.2944C49.412 47.9356 61.2493 41.7952 64.7072 24.0324C64.8098 23.507 64.8987 22.9957 64.9756 22.4961C64.5391 22.265 64.5391 22.265 64.9756 22.4961C66.0052 15.9308 64.9686 11.4618 61.4173 7.41583Z" fill="#27346A"/>
<path d="M29.2257 20.1311C29.6683 19.9199 30.1526 19.8107 30.643 19.8113H51.2077C53.6428 19.8113 55.9142 19.9698 57.9898 20.3039C58.5706 20.3965 59.1484 20.5071 59.7224 20.6354C60.5358 20.8149 61.34 21.0346 62.1317 21.2937C63.1521 21.6345 64.1024 22.0314 64.9758 22.4961C66.0052 15.9283 64.9686 11.4618 61.4173 7.41583C57.5068 2.96116 50.4442 1.05133 41.4061 1.05133H15.1728C13.3258 1.05133 11.7546 2.39598 11.4651 4.21913L0.542993 73.4873C0.325897 74.8555 1.38361 76.0907 2.76584 76.0907H18.9622L27.4 22.5825C27.4831 22.0566 27.6926 21.5587 28.0106 21.1317C28.3287 20.7047 28.7456 20.3613 29.2257 20.1311Z" fill="#27346A"/>
<path d="M64.7075 24.0323C61.2496 41.7927 49.4126 47.9356 34.2947 47.9356H26.5971C24.7503 47.9356 23.1906 49.2805 22.9036 51.1039L17.8439 83.1789C17.6549 84.3743 18.5794 85.4575 19.7888 85.4575H33.4401C34.222 85.4573 34.9783 85.1781 35.5728 84.6701C36.1673 84.1622 36.5611 83.4587 36.6833 82.6863L36.8163 81.9907L39.3892 65.6844L39.5549 64.7832C39.6771 64.0109 40.0708 63.3075 40.6653 62.7995C41.2598 62.2915 42.016 62.0123 42.7979 62.012H44.841C58.065 62.012 68.4197 56.6396 71.4456 41.1018C72.7086 34.6086 72.0551 29.1874 68.7139 25.3795C67.7005 24.2261 66.442 23.2736 64.9759 22.4961C64.8965 22.9982 64.8104 23.507 64.7075 24.0323Z" fill="#2790C3"/>
<path d="M61.3568 21.0533C60.8176 20.8959 60.2733 20.7565 59.7249 20.6354C59.1506 20.5091 58.5729 20.3993 57.9923 20.3061C55.9145 19.9698 53.6448 19.811 51.2074 19.811H30.6453C30.1546 19.8102 29.6701 19.9204 29.228 20.1333C28.7473 20.3627 28.3297 20.7059 28.0116 21.133C27.6934 21.5602 27.4842 22.0585 27.402 22.5848L23.0315 50.2962L22.9053 51.104C23.1928 49.2805 24.7523 47.9356 26.5993 47.9356H34.2969C49.4145 47.9356 61.2516 41.7952 64.7094 24.0323C64.8123 23.507 64.8987 22.9979 64.9781 22.4961C64.1026 22.0343 63.1546 21.6342 62.134 21.2959C61.8764 21.2105 61.6174 21.1296 61.357 21.0533" fill="#1F264F"/>
</g>
<defs>
<clipPath id="clip0_316_1346">
<rect width="71.8043" height="84.7066" fill="white" transform="translate(0.504883 0.822449)"/>
</clipPath>
</defs>
</svg>
